# xmcd CD database file
#
# Track frame offsets:
#	150
#	33357
#	57917
#	83781
#	95961
#	109800
#	124637
#	166221
#	192319
#	215922
#	234514
#
# Disc length: 3281 seconds
#
# Revision: 0
# Processed by: cddbd v1.4PL0 Copyright (c) Steve Scherf et al.
# Submitted via: CDex 1.51
#
DISCID=990ccf0b
DTITLE=L'effet vapeur (ARFI) - Pièces et accessoires
DYEAR=1900
DGENRE=Jazz
TTITLE0=Poui dou do dé
TTITLE1=Les locos
TTITLE2=Alap
TTITLE3=Claridin en boudinette
TTITLE4=Aluette la vache
TTITLE5=Les plateaux
TTITLE6=War walz
TTITLE7=Ah! lent
TTITLE8=Mops
TTITLE9=Petite boîte
TTITLE10=Le défilé
EXTD=
EXTT0=
EXTT1=
EXTT2=
EXTT3=
EXTT4=
EXTT5=
EXTT6=
EXTT7=
EXTT8=
EXTT9=
EXTT10=
PLAYORDER=
